<svg width="32" height="32" viewBox="0 0 32 32" fill="none" xmlns="http://www.w3.org/2000/svg" role="img" aria-label="Nido">
  <rect width="32" height="32" rx="8" fill="#2f7a5b" />
  <path
    d="M6 19c0-2.2 1.9-3.9 4-3.6 1.1.15 2 .9 2.5 1.9.5-1 1.4-1.75 2.5-1.9 2.1-.3 4 1.4 4 3.6 0 3.2-4.4 5.6-6.5 6.6C12 24.6 6 22.2 6 19Z"
    fill="#f4ede3"
  />
  <path
    d="M16 6.5c3.3 0 6 1.6 6 3.4 0 .6-.4 1.1-1 1.4-1.2-1.1-3-1.8-5-1.8s-3.8.7-5 1.8c-.6-.3-1-.8-1-1.4 0-1.8 2.7-3.4 6-3.4Z"
    fill="#c2603d"
  />
</svg>
