<svg width="64" height="64" viewBox="0 0 64 64" xmlns="http://www.w3.org/2000/svg" role="img" aria-label="Venezuela">
  <title>Venezuela</title>
  <defs>
    <clipPath id="r"><rect width="64" height="64" rx="13" /></clipPath>
  </defs>
  <g clip-path="url(#r)">
    <rect width="64" height="21.333" y="0" fill="#FCD116" />
    <rect width="64" height="21.333" y="21.333" fill="#00247D" />
    <rect width="64" height="21.333" y="42.667" fill="#CF142B" />
    <path d="M14.000,31.729 14.528,33.352 16.235,33.352 14.854,34.356 15.381,35.980 14.000,34.976 12.619,35.980 13.146,34.356 11.765,33.352 13.472,33.352Z M18.816,29.273 19.344,30.897 21.051,30.897 19.670,31.901 20.198,33.525 18.816,32.521 17.435,33.525 17.963,31.901 16.581,30.897 18.289,30.897Z M23.958,27.602 24.485,29.226 26.193,29.226 24.811,30.230 25.339,31.853 23.958,30.850 22.576,31.853 23.104,30.230 21.723,29.226 23.430,29.226Z M29.297,26.756 29.825,28.380 31.532,28.380 30.151,29.384 30.678,31.007 29.297,30.004 27.916,31.007 28.443,29.384 27.062,28.380 28.769,28.380Z M34.703,26.756 35.231,28.380 36.938,28.380 35.557,29.384 36.084,31.007 34.703,30.004 33.322,31.007 33.849,29.384 32.468,28.380 34.175,28.380Z M40.042,27.602 40.570,29.226 42.277,29.226 40.896,30.230 41.424,31.853 40.042,30.850 38.661,31.853 39.189,30.230 37.807,29.226 39.515,29.226Z M45.184,29.273 45.711,30.897 47.419,30.897 46.037,31.901 46.565,33.525 45.184,32.521 43.802,33.525 44.330,31.901 42.949,30.897 44.656,30.897Z M50.000,31.729 50.528,33.352 52.235,33.352 50.854,34.356 51.381,35.980 50.000,34.976 48.619,35.980 49.146,34.356 47.765,33.352 49.472,33.352Z" fill="#ffffff" />
  </g>
</svg>
